<?xml version="1.0" standalone="no"?>
<!DOCTYPE svg PUBLIC "-//W3C//DTD SVG 20010904//EN"
 "http://www.w3.org/TR/2001/REC-SVG-20010904/DTD/svg10.dtd">
<svg version="1.0" xmlns="http://www.w3.org/2000/svg"
 width="189.000000pt" height="99.000000pt" viewBox="0 0 189.000000 99.000000"
 preserveAspectRatio="xMidYMid meet">
<metadata>
Created by potrace 1.16, written by Peter Selinger 2001-2019
</metadata>
<g transform="translate(0.000000,99.000000) scale(0.100000,-0.100000)"
fill="#000000" stroke="none">
<path d="M635 932 c-3 -3 -16 -7 -28 -9 -12 -2 -33 -5 -45 -8 -15 -4 -21 -2
-17 5 7 11 -54 14 -104 4 -27 -6 -29 -9 -19 -22 11 -13 10 -14 -9 -3 -13 6
-23 8 -23 4 0 -12 20 -39 20 -28 0 6 5 2 11 -8 6 -9 15 -14 21 -11 7 4 8 2 4
-5 -5 -7 -16 -9 -28 -5 -14 4 -18 2 -14 -5 11 -17 55 -9 62 11 6 21 59 60 68
51 11 -11 6 -23 -9 -23 -8 0 -15 -5 -15 -10 0 -18 29 -23 47 -9 12 10 15 10 9
2 -6 -12 4 -17 25 -15 4 1 5 -8 2 -18 -3 -12 0 -20 6 -20 7 0 10 4 6 9 -3 5
-1 12 4 15 11 7 9 -13 -2 -31 -5 -8 -3 -13 4 -13 8 0 8 -4 -1 -15 -10 -12 -9
-20 4 -40 20 -30 42 -32 51 -5 4 12 24 28 46 36 21 9 39 20 39 26 0 5 5 6 12
2 8 -5 9 -2 5 9 -3 9 -1 19 4 23 6 3 9 18 6 33 -4 20 0 30 16 41 22 14 21 14
-13 23 -42 12 -136 17 -145 9z"/>
<path d="M1405 861 c-3 -6 -16 -11 -29 -11 -25 0 -76 -21 -76 -32 0 -5 -9 -8
-20 -8 -11 0 -20 -6 -21 -12 0 -7 -4 -4 -9 7 -9 20 -9 20 -15 0 -5 -16 -15
-21 -45 -22 -31 -2 -73 -15 -122 -41 -5 -2 -8 1 -8 6 0 6 8 12 18 14 12 3 6 9
-22 21 -54 24 -62 22 -106 -23 -40 -41 -53 -74 -25 -64 8 4 15 1 15 -5 0 -6
-5 -11 -11 -11 -5 0 -8 -4 -5 -8 2 -4 -9 -17 -25 -27 -19 -14 -27 -26 -23 -37
4 -13 0 -18 -15 -18 -26 0 -36 -17 -21 -35 10 -12 8 -21 -12 -47 -38 -50 -42
-91 -13 -118 19 -18 31 -21 57 -16 18 3 38 2 43 -2 16 -11 37 -80 31 -100 -3
-9 -1 -24 4 -32 7 -12 10 -12 10 -1 0 7 6 11 15 8 8 -4 17 -2 20 3 3 5 12 7
19 4 8 -3 17 -1 21 5 3 6 14 11 23 11 16 -1 16 -2 0 -14 -10 -7 -15 -16 -11
-19 3 -4 -2 -18 -11 -32 -15 -23 -20 -24 -34 -13 -13 11 -15 11 -7 -2 8 -13 7
-13 -9 -1 -9 8 -14 21 -11 30 5 13 4 13 -6 4 -10 -10 -10 -18 -1 -38 19 -40
52 -30 79 24 13 25 28 48 34 52 7 4 9 18 5 36 -5 23 -1 34 24 58 32 30 40 58
15 49 -8 -4 -15 -1 -15 5 0 6 6 11 14 11 20 0 69 41 59 51 -4 4 -20 9 -35 11
-15 2 -31 8 -35 13 -4 4 -2 5 5 1 6 -4 12 -3 12 3 0 5 12 4 28 -5 15 -7 36
-14 47 -14 26 -1 55 -23 55 -42 0 -9 8 -26 18 -38 l18 -22 -1 27 c0 30 54 81
62 58 6 -16 43 -58 43 -48 0 4 7 2 15 -5 21 -18 46 3 27 22 -7 7 -12 15 -12
19 0 7 58 24 71 21 8 -1 4 59 -6 81 -10 23 23 23 42 0 12 -15 13 -16 11 -2 -3
16 60 85 74 81 4 -1 5 5 2 13 -7 17 -34 21 -34 5 0 -5 -6 -10 -13 -10 -7 0
-23 -14 -35 -30 -13 -17 -30 -30 -40 -29 -14 0 -14 2 3 9 11 5 14 9 6 9 -8 1
-11 7 -7 17 4 9 1 23 -6 31 -9 11 -9 16 3 24 20 13 69 11 69 -3 0 -6 11 -1 24
11 14 13 37 24 53 25 15 1 34 5 41 10 19 11 27 -1 13 -18 -7 -8 -11 -23 -9
-33 4 -15 8 -12 24 14 13 22 27 33 42 33 13 0 33 11 46 25 16 17 26 21 33 14
8 -8 13 -8 17 0 4 5 -7 17 -23 26 -34 17 -87 20 -96 5 -8 -13 -26 -13 -22 0 1
6 -21 19 -50 29 -43 16 -53 17 -57 5 -3 -8 -16 -14 -30 -14 -29 0 -41 -24 -21
-44 13 -12 12 -15 -2 -21 -10 -3 -14 -3 -10 1 12 12 -14 34 -39 34 -16 0 -24
-6 -25 -17 0 -11 -3 -13 -6 -5 -7 18 -19 15 -20 -7 -1 -14 4 -19 17 -16 14 3
17 -1 13 -12 -4 -10 -2 -14 5 -9 6 3 13 2 17 -4 14 -22 -27 -8 -57 20 -17 17
-28 30 -24 30 3 0 -1 11 -10 25 -14 22 -14 25 -1 25 8 0 23 3 32 7 14 5 16 2
10 -15 -4 -16 -2 -22 8 -22 11 0 13 7 9 23 -5 21 -5 21 12 5 21 -22 40 -23 56
-3 17 21 5 30 -38 30 -30 0 -36 3 -34 18 2 10 -3 17 -12 17 -8 0 -21 3 -29 6
-8 3 -18 1 -22 -5z m-215 -112 c0 -5 6 -7 13 -3 7 4 8 3 4 -2 -5 -5 -16 -9
-24 -9 -9 0 -18 -6 -21 -14 -3 -10 1 -11 19 -5 36 13 92 11 96 -3 3 -7 -2 -13
-11 -13 -16 0 -21 -12 -9 -23 3 -4 12 -2 19 4 8 7 14 7 19 -1 3 -5 13 -10 22
-10 11 0 14 6 9 26 -4 14 -2 32 4 39 15 18 48 7 56 -19 4 -11 12 -24 18 -28 7
-5 6 -8 -3 -8 -8 0 -19 7 -26 16 -10 15 -14 13 -33 -18 -25 -40 -27 -59 -10
-76 10 -10 10 -15 -2 -22 -23 -15 -43 -12 -36 5 3 8 1 15 -4 15 -6 0 -10 10
-10 23 -1 22 -1 22 -18 2 -16 -20 -18 -20 -34 -3 -10 10 -18 23 -18 29 0 5 -4
8 -9 4 -5 -3 -16 2 -25 10 -16 16 -61 12 -72 -6 -3 -5 -9 -7 -14 -4 -4 3 -6
-4 -3 -15 3 -11 0 -20 -6 -20 -12 0 -14 23 -5 58 5 17 14 22 38 22 24 0 27 3
16 10 -13 9 -13 10 0 10 8 0 21 9 28 20 13 21 32 27 32 9z"/>
<path d="M230 815 c0 -11 5 -15 14 -12 8 3 20 0 26 -8 6 -8 19 -16 28 -18 9
-2 1 -2 -18 1 -19 2 -68 6 -107 8 -40 1 -77 6 -83 9 -15 9 -71 -15 -64 -26 3
-5 10 -7 15 -4 5 4 9 4 9 0 0 -3 -10 -10 -23 -15 -17 -7 -18 -9 -4 -9 9 -1 17
-5 17 -10 0 -11 32 -7 53 5 9 6 9 4 -1 -8 -14 -17 -1 -34 18 -23 30 18 139
-76 127 -110 -5 -13 46 -105 58 -105 4 0 3 5 0 10 -3 6 -4 10 -1 10 2 0 14
-16 26 -35 15 -24 33 -38 60 -45 21 -6 43 -17 50 -25 18 -21 29 -19 23 5 -3
11 -12 20 -20 20 -9 0 -13 6 -9 15 3 8 1 15 -4 15 -6 0 -10 -4 -10 -10 0 -5
-6 -10 -14 -10 -19 0 -31 37 -17 53 13 17 63 20 73 5 6 -10 8 -10 8 -1 0 24
62 104 76 99 7 -3 16 -1 19 4 4 6 1 10 -4 10 -6 0 -11 7 -11 15 0 9 6 12 17 8
11 -4 14 -3 9 5 -5 8 -2 10 8 6 9 -3 16 -2 16 3 0 11 -42 48 -52 46 -3 -1 -12
4 -18 12 -19 22 -50 19 -45 -4 2 -11 1 -29 -2 -42 -5 -18 -8 -19 -17 -8 -6 8
-23 20 -38 26 -47 21 -27 69 23 56 21 -6 22 -4 11 9 -9 11 -10 18 -2 23 6 3 8
11 5 16 -7 10 6 12 29 3 19 -7 21 -34 4 -34 -13 -1 31 -29 45 -30 5 0 6 9 2
20 -5 16 -3 19 12 14 10 -4 0 10 -21 30 -31 28 -48 36 -78 36 -40 0 -50 -13
-22 -28 11 -6 13 -12 6 -16 -6 -4 -21 5 -34 19 -23 26 -38 32 -38 14 0 -5 5
-7 12 -3 8 5 9 2 5 -10 -4 -10 -7 -20 -7 -22 0 -2 -10 -4 -22 -4 -15 0 -19 3
-11 8 16 10 0 35 -24 38 -10 1 -33 5 -50 9 -27 6 -33 5 -33 -10z m130 -120
c14 9 46 -28 42 -48 -2 -9 -8 -15 -13 -12 -5 4 -9 0 -9 -7 0 -16 47 -68 61
-68 6 0 5 -8 -2 -21 -8 -16 -18 -20 -40 -17 -26 4 -29 1 -35 -29 -3 -18 -10
-30 -15 -27 -5 3 -7 10 -4 15 4 5 -1 9 -9 9 -9 0 -16 4 -16 10 0 5 8 7 18 3
10 -3 6 2 -8 13 -14 10 -29 18 -33 16 -4 -1 -14 4 -21 11 -12 11 -9 16 14 32
23 15 25 21 15 32 -8 7 -21 13 -30 13 -14 0 -14 2 1 25 9 14 27 28 40 31 13 3
24 14 25 23 0 10 2 11 6 3 2 -6 9 -10 13 -7z"/>
<path d="M487 395 c-9 -7 -14 -15 -10 -18 3 -4 0 -13 -7 -22 -17 -20 -5 -61
27 -91 27 -25 28 -18 -3 -185 -3 -17 1 -33 11 -43 21 -21 42 -22 25 -1 -9 11
-10 18 -1 28 6 8 9 16 6 19 -3 3 7 18 22 34 15 16 26 32 25 37 -1 4 4 7 12 7
8 0 20 14 28 30 7 17 20 32 29 35 13 4 49 69 49 88 0 3 -18 12 -40 18 -22 7
-40 15 -40 19 0 12 -52 42 -85 50 -20 4 -38 3 -48 -5z"/>
<path d="M1538 273 c-16 -8 -28 -18 -28 -22 0 -5 -10 -11 -21 -14 -19 -5 -21
-11 -15 -38 8 -42 8 -42 52 -30 31 9 41 7 65 -9 37 -27 63 -25 77 5 16 35 16
36 -13 69 -14 16 -25 33 -25 38 0 4 -5 8 -11 8 -5 0 -7 -4 -4 -10 3 -5 0 -10
-9 -10 -8 0 -16 -6 -19 -12 -2 -8 -8 -9 -13 -4 -5 5 -4 11 4 13 6 3 12 8 12
13 0 15 -25 16 -52 3z"/>
</g>
</svg>
